<?xml version="1.0" standalone="no"?>
<!DOCTYPE svg PUBLIC "-//W3C//DTD SVG 20010904//EN"
 "http://www.w3.org/TR/2001/REC-SVG-20010904/DTD/svg10.dtd">
<svg version="1.0" xmlns="http://www.w3.org/2000/svg"
 width="228.000000pt" height="228.000000pt" viewBox="0 0 228.000000 228.000000"
 preserveAspectRatio="xMidYMid meet">
<metadata>
Created by potrace 1.14, written by Peter Selinger 2001-2017
</metadata>
<g transform="translate(0.000000,228.000000) scale(0.100000,-0.100000)"
fill="#000000" stroke="none">
<path d="M1493 2265 c-52 -36 -62 -162 -24 -306 19 -73 20 -108 17 -715 -2
-582 -4 -644 -20 -699 -61 -205 -194 -366 -345 -420 -189 -66 -328 44 -348
275 l-6 65 58 -73 c32 -39 62 -72 66 -72 13 0 11 7 -8 43 -9 18 -47 124 -85
236 -74 222 -132 341 -154 319 -2 -3 4 -40 14 -83 15 -63 18 -105 14 -219 -10
-294 -7 -328 32 -410 38 -80 104 -149 173 -181 55 -27 176 -31 249 -10 205 58
362 235 441 492 l26 88 2 685 c2 674 2 686 23 740 12 30 21 70 22 88 1 122
-78 206 -147 157z m87 -25 c15 -15 18 -25 11 -38 -5 -9 -12 -26 -16 -36 -5
-17 -9 -15 -36 18 -24 28 -36 35 -51 30 -21 -6 -20 2 5 34 15 19 65 14 87 -8z
m-71 -185 c-23 -61 -33 -62 -42 -3 -5 34 -3 39 18 44 13 3 27 13 30 22 4 10 9
12 12 6 2 -6 -6 -37 -18 -69z m31 -489 c3 -512 2 -691 -5 -684 -3 2 -7 234
-10 514 -2 296 -1 495 4 475 5 -18 10 -156 11 -305z m-3 -728 c-3 -7 -5 -2 -5
12 0 14 2 19 5 13 2 -7 2 -19 0 -25z m-809 -426 c3 -61 39 -211 55 -231 10
-14 10 -14 -5 -3 -10 8 -26 38 -37 68 -22 57 -40 214 -25 214 5 0 10 -21 12
-48z m686 -109 c-28 -48 -62 -90 -97 -122 -57 -50 -79 -65 -144 -97 -62 -30
-83 -35 -144 -35 -39 0 -75 3 -80 8 -4 4 17 6 47 5 131 -9 303 96 404 245 43
64 52 62 14 -4z"/>
</g>
</svg>
