<svg width="100%" height="100%" viewBox="0 0 54 122" version="1.1" xmlns="http://www.w3.org/2000/svg" xmlns:xlink="http://www.w3.org/1999/xlink" xml:space="preserve" xmlns:serif="http://www.serif.com/" style="fill-rule:evenodd;clip-rule:evenodd;stroke-linejoin:round;stroke-miterlimit:2;">
    <g transform="matrix(1,0,0,1,-602.893,-80.5117)">
        <g transform="matrix(0.0095146,0,0,-0.0095146,598.957,202.291)">
            <path d="M5292,12784C5150,12746 5086,12692 5020,12555C4885,12276 4845,11797 4924,11418C4960,11248 5024,11031 5066,10942C5110,10846 5115,10796 5130,10209C5159,9059 5172,5338 5150,4284C5139,3769 5131,3636 5100,3455C4977,2742 4707,2126 4285,1593C4183,1464 3942,1221 3810,1115C3123,562 2370,435 1835,784C1472,1020 1239,1468 1160,2075C1143,2209 1113,2631 1121,2628C1125,2626 1195,2533 1275,2420C1457,2166 1585,2007 1696,1896C1779,1814 1858,1762 1880,1775C1905,1790 1889,1847 1835,1929C1680,2166 1577,2438 1310,3320C1074,4100 979,4362 824,4673C678,4962 517,5180 448,5180C395,5180 403,5086 475,4863C499,4787 528,4689 539,4644C627,4297 645,3832 596,3175C555,2619 547,2425 553,2104C558,1774 566,1704 624,1504C787,937 1154,453 1607,208C1885,57 2109,7 2500,6C2731,5 2850,18 3050,66C3942,276 4748,977 5249,1977C5464,2408 5642,2969 5695,3387C5755,3863 5759,4991 5719,9676L5708,10937L5788,11106C5832,11199 5881,11316 5898,11365C6030,11760 6012,12177 5852,12484C5724,12728 5509,12843 5292,12784ZM5463,12694C5552,12671 5617,12634 5676,12575C5737,12512 5778,12435 5763,12411C5758,12402 5739,12394 5722,12392C5705,12390 5686,12382 5680,12374C5673,12367 5664,12314 5660,12257C5652,12143 5641,12114 5604,12100C5568,12086 5494,12088 5482,12103C5477,12109 5468,12143 5462,12177C5448,12256 5419,12312 5365,12365C5279,12448 5171,12475 5113,12426C5097,12413 5078,12390 5071,12376C5031,12301 5029,12402 5069,12485C5109,12568 5190,12682 5220,12697C5255,12715 5390,12713 5463,12694ZM5368,11938C5375,11931 5380,11916 5380,11905C5380,11872 5308,11633 5247,11465C5143,11174 5107,11139 5066,11284C5035,11393 4999,11588 4997,11657C4994,11756 5009,11770 5119,11780C5214,11788 5244,11805 5270,11865C5301,11937 5340,11966 5368,11938ZM5365,10666C5422,10531 5438,9812 5446,7045C5453,4977 5442,4160 5410,4160C5397,4160 5385,4621 5360,6110C5350,6735 5330,7855 5309,9070C5297,9753 5300,10667 5313,10688C5328,10710 5351,10701 5365,10666ZM859,2805C865,2761 874,2660 880,2580C911,2157 967,1787 1052,1455C1106,1240 1140,1148 1217,1002C1281,881 1292,835 1244,895C1185,967 1079,1133 1035,1220C894,1502 830,1782 810,2208C800,2413 810,2845 825,2883C838,2914 848,2889 859,2805ZM4913,2087C4910,2075 4883,2009 4853,1940C4568,1276 4011,729 3300,418C2983,279 2919,265 2570,266C2381,266 2304,270 2232,283C2117,304 2008,340 2002,359C1998,370 2016,372 2101,367C2158,364 2255,356 2315,350C2452,335 2738,343 2834,365C3087,422 3423,583 3749,803C4164,1083 4431,1373 4729,1866C4853,2070 4932,2166 4913,2087Z" style="fill-rule:nonzero;"/>
        </g>
    </g>
</svg>
